<svg width="111" height="57" viewBox="0 0 111 57" fill="none" xmlns="http://www.w3.org/2000/svg">
<path d="M41.4873 0C49.4533 4.0672e-05 54.8236 2.33127 57.9053 7.12695C60.8211 11.6644 61.2148 17.8563 61.2148 23.3145C61.2148 30.1956 59.4442 35.7123 55.9541 39.7109C55.7842 39.9056 55.609 40.0947 55.4316 40.2812C55.4854 39.7904 55.5155 39.2022 55.416 39.0361C55.4033 39.015 55.3878 39.0009 55.3721 38.9902C55.2744 38.375 54.992 37.5542 54.3398 37.3623C53.3236 37.0634 49.1393 37.3623 48.7803 37.3623C48.4933 37.3623 48.6607 39.7536 48.7803 40.9492C48.1626 41.1684 46.8073 41.6544 46.3291 41.8457C45.7313 42.0848 44.8346 42.025 44.6553 41.8457C44.4756 41.6648 43.3399 37.6611 42.1445 37.3623C40.9488 37.0634 37.9598 37.1232 36.8838 37.3623C36.6667 37.4107 36.5212 37.6604 36.4287 38.0332C36.3251 38.1377 36.2863 38.433 36.2344 39.1445C36.1565 40.2111 36.592 44.5145 36.8281 46.6113C32.0289 46.4842 26.6512 45.5217 21.7314 43.9062C18.68 47.8808 14.0054 50.2148 8.9668 50.2148H4.6377L7.69922 47.1533C9.67323 45.1793 10.7606 42.5545 10.7607 39.7627V38.7822C3.81259 34.3406 0.000173169 28.8747 0 23.3145C0 17.1768 5.29467 11.2001 14.9082 6.48633C23.0678 2.48537 33.2525 0 41.4873 0ZM46.4062 45.5518C45.5258 45.7998 44.6093 46.0058 43.6562 46.168C43.6284 45.9935 43.59 45.8236 43.5508 45.6797C44.5222 45.643 45.5271 45.596 46.4062 45.5518Z" fill="#8A74E3"/>
<path d="M16.3545 23.3202C15.4277 24.6458 16.3762 26.4661 17.9937 26.4661H20.2252C21.2367 26.4661 22.0567 27.286 22.0567 28.2975C22.0567 29.309 21.2367 30.129 20.2252 30.129H11.0795C9.97495 30.129 9.07952 29.2335 9.07952 28.129V27.354C9.07952 26.9462 9.20418 26.5482 9.43679 26.2132L14.7475 18.5658C15.6685 17.2396 14.7194 15.425 13.1047 15.425H10.911C9.89949 15.425 9.07952 14.6051 9.07952 13.5936C9.07952 12.5821 9.89949 11.7621 10.911 11.7621H20.0567C21.1612 11.7621 22.0567 12.6576 22.0567 13.7621V14.5336C22.0567 14.9436 21.9307 15.3436 21.6958 15.6795L16.3545 23.3202Z" fill="white"/>
<path d="M24.0896 22.8032C24.0896 21.3031 24.3687 19.9862 24.9269 18.8525C25.5025 17.7187 26.2787 16.8466 27.2554 16.2361C28.2322 15.6256 29.3224 15.3204 30.5259 15.3204C31.555 15.3204 32.4533 15.5297 33.2207 15.9483C33.4834 16.0884 33.7256 16.2431 33.9472 16.4125C34.3125 16.6917 35.026 16.4454 35.026 15.9857C35.026 15.7338 35.2302 15.5297 35.482 15.5297H37.5C38.6046 15.5297 39.5 16.4251 39.5 17.5297V28.129C39.5 29.2335 38.6046 30.129 37.5 30.129H35.4944C35.2357 30.129 35.026 29.9193 35.026 29.6606C35.026 29.1928 34.3172 28.9449 33.9459 29.2294C33.7163 29.4054 33.4658 29.5657 33.1946 29.7103C32.4271 30.129 31.5288 30.3383 30.4997 30.3383C29.3136 30.3383 28.2322 30.033 27.2554 29.4225C26.2787 28.7946 25.5025 27.9138 24.9269 26.78C24.3687 25.6288 24.0896 24.3032 24.0896 22.8032ZM35.026 22.8293C35.026 21.713 34.7121 20.8322 34.0841 20.1868C33.4736 19.5414 32.7236 19.2188 31.8341 19.2188C30.9445 19.2188 30.1858 19.5414 29.5578 20.1868C28.9473 20.8147 28.6421 21.6868 28.6421 22.8032C28.6421 23.9195 28.9473 24.809 29.5578 25.4718C30.1858 26.1172 30.9445 26.4399 31.8341 26.4399C32.7236 26.4399 33.4736 26.1172 34.0841 25.4718C34.7121 24.8265 35.026 23.9456 35.026 22.8293Z" fill="white"/>
<path d="M47.2107 15.9981C47.2107 16.4658 47.9166 16.7113 48.2859 16.4243C48.5099 16.2503 48.7532 16.0916 49.016 15.9483C49.7834 15.5297 50.6817 15.3204 51.7108 15.3204C52.9143 15.3204 54.0045 15.6256 54.9813 16.2361C55.958 16.8466 56.7255 17.7187 57.2836 18.8525C57.8592 19.9862 58.147 21.3031 58.147 22.8032C58.147 24.3032 57.8592 25.6288 57.2836 26.78C56.7255 27.9138 55.958 28.7946 54.9813 29.4225C54.0045 30.033 52.9143 30.3383 51.7108 30.3383C50.6992 30.3383 49.8009 30.129 49.016 29.7103C48.3762 29.3614 47.2107 29.8113 47.2107 30.5401V35.0885C47.2107 36.193 46.3152 37.0885 45.2107 37.0885H44.7367C43.6321 37.0885 42.7367 36.193 42.7367 35.0885V17.5297C42.7367 16.4251 43.6321 15.5297 44.7367 15.5297H46.7423C47.001 15.5297 47.2107 15.7394 47.2107 15.9981ZM53.5946 22.8032C53.5946 21.6868 53.2806 20.8147 52.6527 20.1868C52.0422 19.5414 51.2835 19.2188 50.3765 19.2188C49.4869 19.2188 48.7282 19.5414 48.1002 20.1868C47.4898 20.8322 47.1845 21.713 47.1845 22.8293C47.1845 23.9456 47.4898 24.8265 48.1002 25.4718C48.7282 26.1172 49.4869 26.4399 50.3765 26.4399C51.266 26.4399 52.0248 26.1172 52.6527 25.4718C53.2806 24.809 53.5946 23.9195 53.5946 22.8032Z" fill="white"/>
<path d="M57.2208 4.38811C57.1119 4.34064 56.9889 4.37144 56.914 4.46461C55.9846 5.61837 53.2642 5.79256 52.4523 5.81865C52.2558 5.82492 52.0531 5.84905 51.8507 5.89044C47.8164 6.71173 47.8776 9.67892 47.9922 10.5687C48.0112 10.7158 48.1101 10.8358 48.2501 10.8823C48.389 10.9286 48.5383 10.8911 48.6401 10.7858C49.1114 10.2974 50.1448 9.41882 51.7691 9.02338C52.4403 8.85998 53.0771 8.56046 53.6437 8.217C52.9817 8.71993 52.1273 9.26288 51.0461 9.77052C49.9622 10.2797 49.1658 11.1624 48.8737 11.518C48.8072 11.5991 48.777 11.705 48.7907 11.8089C48.8049 11.9141 48.8629 12.0096 48.95 12.0714C49.2274 12.2683 49.5579 12.427 49.9319 12.5437C50.3346 12.6689 50.7495 12.7308 51.165 12.7308C52.0045 12.7308 52.8448 12.4784 53.5833 11.989C56.4205 10.1083 57.2002 5.90221 57.3714 4.65821C57.3875 4.54287 57.3269 4.4344 57.2208 4.38811Z" fill="white"/>
<path d="M54.0402 54.7907C54.0402 55.8953 53.1448 56.7907 52.0402 56.7907H50.6421C49.9704 56.7907 49.3435 56.4535 48.9733 55.893L45.7523 51.0164C44.6593 49.3616 42.0835 50.1355 42.0835 52.1187V54.7907C42.0835 55.8953 41.188 56.7907 40.0835 56.7907H39.6095C38.5049 56.7907 37.6095 55.8953 37.6095 54.7907V40.4239C37.6095 39.3193 38.5049 38.4239 39.6095 38.4239H41.0049C41.6781 38.4239 42.3062 38.7626 42.676 39.3251L45.8951 44.2213C46.9858 45.8803 49.5663 45.108 49.5663 43.1225V40.4239C49.5663 39.3193 50.4617 38.4239 51.5663 38.4239H52.0402C53.1448 38.4239 54.0402 39.3193 54.0402 40.4239V54.7907Z" fill="#40B491"/>
<path d="M69.6994 42.1914C70.804 42.1914 71.6994 43.0869 71.6994 44.1914V54.7907C71.6994 55.8953 70.804 56.7907 69.6994 56.7907H67.7031C67.4393 56.7907 67.2254 56.5768 67.2254 56.313C67.2254 55.8464 66.5466 55.5978 66.1719 55.876C65.9266 56.0581 65.6586 56.2235 65.3678 56.3721C64.6004 56.7558 63.7457 56.9477 62.8038 56.9477C61.6875 56.9477 60.702 56.7035 59.8473 56.2151C58.9926 55.7093 58.3298 54.9854 57.8589 54.0435C57.3879 53.1016 57.1525 51.994 57.1525 50.7207V44.1914C57.1525 43.0869 58.0479 42.1914 59.1525 42.1914H59.6003C60.7048 42.1914 61.6003 43.0869 61.6003 44.1914V50.119C61.6003 51.0958 61.8532 51.8545 62.359 52.3952C62.8648 52.9359 63.5451 53.2063 64.3998 53.2063C65.2719 53.2063 65.9609 52.9359 66.4667 52.3952C66.9725 51.8545 67.2254 51.0958 67.2254 50.119V44.1914C67.2254 43.0869 68.1209 42.1914 69.2254 42.1914H69.6994Z" fill="#40B491"/>
<path d="M81.4539 52.997C82.3353 52.997 83.0499 53.7115 83.0499 54.593V54.8938C83.0499 55.9414 82.2006 56.7907 81.153 56.7907H80.7737C79.1515 56.7907 77.8869 56.3982 76.9799 55.6133C76.0729 54.811 75.6194 53.5115 75.6194 51.715V46.7962C75.6194 46.3049 75.2212 45.9067 74.7299 45.9067C74.2386 45.9067 73.8403 45.5084 73.8403 45.0171V43.081C73.8403 42.5897 74.2386 42.1914 74.7299 42.1914C75.2212 42.1914 75.6194 41.7932 75.6194 41.3019V40.4123C75.6194 39.4297 76.416 38.6332 77.3986 38.6332H78.3143C79.2969 38.6332 80.0934 39.4297 80.0934 40.4123V40.7263C80.0934 41.5355 80.7494 42.1914 81.5586 42.1914C82.3678 42.1914 83.0237 42.8474 83.0237 43.6566V44.4415C83.0237 45.2507 82.3678 45.9067 81.5586 45.9067C80.7494 45.9067 80.0934 46.5626 80.0934 47.3718V51.7673C80.0934 52.2034 80.1981 52.5173 80.4074 52.7092C80.6167 52.901 80.9655 52.997 81.4539 52.997Z" fill="#40B491"/>
<path d="M90.0159 42.749C90.0159 43.3036 90.8299 43.5809 91.2614 43.2326C91.4868 43.0506 91.7257 42.8867 91.9782 42.7409C92.1931 42.6119 92.4146 42.5006 92.6426 42.407C93.6643 41.9873 94.5946 42.9299 94.5946 44.0344V45.5404C94.5946 46.2195 94.044 46.7701 93.3649 46.7701C92.2486 46.7701 91.4113 47.0142 90.8532 47.5026C90.295 47.9736 90.0159 48.8108 90.0159 50.0143V54.7907C90.0159 55.8953 89.1205 56.7907 88.0159 56.7907H87.542C86.4374 56.7907 85.542 55.8953 85.542 54.7907V44.1914C85.542 43.0869 86.4374 42.1914 87.542 42.1914H89.4584C89.7663 42.1914 90.0159 42.4411 90.0159 42.749Z" fill="#40B491"/>
<path d="M110.495 49.2556C110.495 50.0029 109.853 50.5638 109.105 50.5638H102.451C101.286 50.5638 100.261 51.6837 101.046 52.5447C101.081 52.5833 101.117 52.6206 101.155 52.6569C101.678 53.1278 102.315 53.3633 103.065 53.3633C103.68 53.3633 104.192 53.2202 104.601 52.9339C105.239 52.4869 105.892 51.9504 106.671 51.9504H107.582C108.887 51.9504 109.834 53.2126 109.049 54.2544C108.976 54.3512 108.9 54.4466 108.821 54.5406C108.193 55.3081 107.399 55.9099 106.44 56.3459C105.48 56.782 104.408 57 103.222 57C101.791 57 100.518 56.6948 99.4017 56.0843C98.2854 55.4738 97.4133 54.6017 96.7854 53.4679C96.1574 52.3342 95.8435 51.0085 95.8435 49.4911C95.8435 47.9736 96.1487 46.648 96.7592 45.5142C97.3871 44.3804 98.2592 43.5083 99.3755 42.8978C100.492 42.2874 101.774 41.9821 103.222 41.9821C104.634 41.9821 105.89 42.2786 106.989 42.8717C108.088 43.4647 108.943 44.3107 109.553 45.4095C110.181 46.5084 110.495 47.7904 110.495 49.2556ZM103.916 48.0782C105.021 48.0782 105.993 47.0297 105.176 46.2863C105.161 46.273 105.147 46.2598 105.132 46.2468C104.608 45.7933 103.954 45.5665 103.169 45.5665C102.419 45.5665 101.783 45.7846 101.259 46.2206C100.411 46.9518 101.326 48.0782 102.446 48.0782H103.916Z" fill="#40B491"/>
</svg>
